<svg xmlns="http://www.w3.org/2000/svg" width="249.75" height="35" viewBox="0 0 249.75 35"><rect class="svg__rect" x="0" y="0" width="155.74" height="35" fill="#3C9AD5"/><rect class="svg__rect" x="153.74" y="0" width="96.00999999999999" height="35" fill="#C1D72F"/><path class="svg__text" d="M17.33 22L14.22 22L14.22 13.47L17.14 13.47Q18.59 13.47 19.34 14.05Q20.10 14.63 20.10 15.78L20.10 15.78Q20.10 16.36 19.78 16.83Q19.47 17.30 18.86 17.56L18.86 17.56Q19.55 17.75 19.93 18.26Q20.31 18.78 20.31 19.51L20.31 19.51Q20.31 20.71 19.53 21.36Q18.76 22 17.33 22L17.33 22ZM15.70 18.15L15.70 20.82L17.35 20.82Q18.04 20.82 18.44 20.47Q18.83 20.13 18.83 19.51L18.83 19.51Q18.83 18.18 17.47 18.15L17.47 18.15L15.70 18.15ZM15.70 14.66L15.70 17.06L17.15 17.06Q17.84 17.06 18.23 16.75Q18.62 16.43 18.62 15.86L18.62 15.86Q18.62 15.23 18.26 14.95Q17.90 14.66 17.14 14.66L17.14 14.66L15.70 14.66ZM30.35 22L24.78 22L24.78 13.47L30.31 13.47L30.31 14.66L26.26 14.66L26.26 17.02L29.76 17.02L29.76 18.19L26.26 18.19L26.26 20.82L30.35 20.82L30.35 22ZM34.12 19.42L34.12 19.42L35.60 19.42Q35.60 20.15 36.08 20.55Q36.56 20.95 37.46 20.95L37.46 20.95Q38.23 20.95 38.62 20.63Q39.01 20.32 39.01 19.80L39.01 19.80Q39.01 19.24 38.61 18.94Q38.22 18.63 37.19 18.32Q36.15 18.01 35.55 17.63L35.55 17.63Q34.38 16.90 34.38 15.72L34.38 15.72Q34.38 14.69 35.22 14.02Q36.06 13.35 37.40 13.35L37.40 13.35Q38.29 13.35 38.99 13.68Q39.69 14.01 40.09 14.61Q40.48 15.22 40.48 15.96L40.48 15.96L39.01 15.96Q39.01 15.29 38.59 14.91Q38.17 14.54 37.39 14.54L37.39 14.54Q36.66 14.54 36.26 14.85Q35.86 15.16 35.86 15.71L35.86 15.71Q35.86 16.18 36.30 16.50Q36.73 16.81 37.73 17.10Q38.72 17.40 39.32 17.78Q39.93 18.16 40.21 18.65Q40.49 19.13 40.49 19.79L40.49 19.79Q40.49 20.86 39.67 21.49Q38.86 22.12 37.46 22.12L37.46 22.12Q36.53 22.12 35.75 21.77Q34.98 21.43 34.55 20.83Q34.12 20.22 34.12 19.42ZM46.46 14.66L43.82 14.66L43.82 13.47L50.59 13.47L50.59 14.66L47.93 14.66L47.93 22L46.46 22L46.46 14.66ZM65.68 22L60.32 22L60.32 13.47L61.81 13.47L61.81 20.82L65.68 20.82L65.68 22ZM70.58 22L69.04 22L72.27 13.47L73.60 13.47L76.82 22L75.28 22L74.58 20.01L71.28 20.01L70.58 22ZM72.93 15.28L71.69 18.82L74.16 18.82L72.93 15.28ZM82.26 22L80.78 22L80.78 13.47L82.26 13.47L86.08 19.54L86.08 13.47L87.55 13.47L87.55 22L86.06 22L82.26 15.95L82.26 22ZM92.04 18.13L92.04 18.13L92.04 17.46Q92.04 15.53 92.97 14.44Q93.89 13.35 95.55 13.35L95.55 13.35Q96.97 13.35 97.81 14.05Q98.65 14.76 98.82 16.08L98.82 16.08L97.37 16.08Q97.12 14.54 95.58 14.54L95.58 14.54Q94.58 14.54 94.07 15.26Q93.55 15.98 93.53 17.37L93.53 17.37L93.53 18.02Q93.53 19.40 94.11 20.17Q94.70 20.93 95.73 20.93L95.73 20.93Q96.87 20.93 97.35 20.42L97.35 20.42L97.35 18.75L95.59 18.75L95.59 17.62L98.83 17.62L98.83 20.89Q98.36 21.50 97.54 21.81Q96.72 22.12 95.68 22.12L95.68 22.12Q94.61 22.12 93.78 21.63Q92.96 21.14 92.51 20.24Q92.06 19.33 92.04 18.13ZM103.31 19.16L103.31 19.16L103.31 13.47L104.79 13.47L104.79 19.18Q104.79 20.03 105.22 20.48Q105.65 20.93 106.50 20.93L106.50 20.93Q108.21 20.93 108.21 19.13L108.21 19.13L108.21 13.47L109.68 13.47L109.68 19.17Q109.68 20.53 108.81 21.32Q107.94 22.12 106.50 22.12L106.50 22.12Q105.03 22.12 104.17 21.33Q103.31 20.55 103.31 19.16ZM115.03 22L113.49 22L116.72 13.47L118.05 13.47L121.27 22L119.73 22L119.03 20.01L115.72 20.01L115.03 22ZM117.38 15.28L116.14 18.82L118.61 18.82L117.38 15.28ZM124.98 18.13L124.98 18.13L124.98 17.46Q124.98 15.53 125.91 14.44Q126.83 13.35 128.49 13.35L128.49 13.35Q129.92 13.35 130.75 14.05Q131.59 14.76 131.76 16.08L131.76 16.08L130.31 16.08Q130.06 14.54 128.52 14.54L128.52 14.54Q127.53 14.54 127.01 15.26Q126.49 15.98 126.47 17.37L126.47 17.37L126.47 18.02Q126.47 19.40 127.05 20.17Q127.64 20.93 128.67 20.93L128.67 20.93Q129.81 20.93 130.29 20.42L130.29 20.42L130.29 18.75L128.53 18.75L128.53 17.62L131.77 17.62L131.77 20.89Q131.31 21.50 130.48 21.81Q129.66 22.12 128.62 22.12L128.62 22.12Q127.55 22.12 126.72 21.63Q125.90 21.14 125.45 20.24Q125.00 19.33 124.98 18.13ZM141.96 22L136.39 22L136.39 13.47L141.92 13.47L141.92 14.66L137.87 14.66L137.87 17.02L141.37 17.02L141.37 18.19L137.87 18.19L137.87 20.82L141.96 20.82L141.96 22Z" fill="#FFFFFF"/><path class="svg__text" d="M170.31 22L167.93 22L167.93 13.60L171.77 13.60Q172.91 13.60 173.75 13.98Q174.59 14.35 175.05 15.06Q175.50 15.76 175.50 16.71L175.50 16.71Q175.50 17.66 175.05 18.35Q174.59 19.05 173.75 19.42Q172.91 19.80 171.77 19.80L171.77 19.80L170.31 19.80L170.31 22ZM170.31 15.47L170.31 17.93L171.63 17.93Q172.36 17.93 172.73 17.61Q173.10 17.29 173.10 16.71L173.10 16.71Q173.10 16.12 172.73 15.80Q172.36 15.47 171.63 15.47L171.63 15.47L170.31 15.47ZM182.38 18.95L179.18 13.60L181.69 13.60L183.68 16.94L185.67 13.60L187.97 13.60L184.76 18.99L184.76 22L182.38 22L182.38 18.95ZM193.85 15.48L191.27 15.48L191.27 13.60L198.79 13.60L198.79 15.48L196.22 15.48L196.22 22L193.85 22L193.85 15.48ZM205.54 22L203.16 22L203.16 13.60L205.54 13.60L205.54 16.76L208.78 16.76L208.78 13.60L211.15 13.60L211.15 22L208.78 22L208.78 18.72L205.54 18.72L205.54 22ZM215.89 17.80L215.89 17.80Q215.89 16.55 216.49 15.55Q217.09 14.56 218.16 14.00Q219.22 13.43 220.55 13.43L220.55 13.43Q221.88 13.43 222.94 14.00Q224.01 14.56 224.61 15.55Q225.22 16.55 225.22 17.80L225.22 17.80Q225.22 19.05 224.61 20.04Q224.01 21.04 222.95 21.60Q221.89 22.17 220.55 22.17L220.55 22.17Q219.22 22.17 218.16 21.60Q217.09 21.04 216.49 20.04Q215.89 19.05 215.89 17.80ZM218.28 17.80L218.28 17.80Q218.28 18.51 218.59 19.05Q218.89 19.60 219.40 19.90Q219.92 20.20 220.55 20.20L220.55 20.20Q221.19 20.20 221.71 19.90Q222.22 19.60 222.52 19.05Q222.82 18.51 222.82 17.80L222.82 17.80Q222.82 17.09 222.52 16.54Q222.22 16 221.71 15.70Q221.19 15.40 220.55 15.40L220.55 15.40Q219.91 15.40 219.40 15.70Q218.89 16 218.59 16.54Q218.28 17.09 218.28 17.80ZM232.28 22L229.95 22L229.95 13.60L231.91 13.60L235.62 18.07L235.62 13.60L237.94 13.60L237.94 22L235.99 22L232.28 17.52L232.28 22Z" fill="#FFFFFF" x="166.74"/></svg>