<svg xmlns="http://www.w3.org/2000/svg" width="362.64" height="35" viewBox="0 0 362.64 35"><rect class="svg__rect" x="0" y="0" width="188.21" height="35" fill="#3C9AD5"/><rect class="svg__rect" x="186.21" y="0" width="176.42999999999998" height="35" fill="#C1D72F"/><path class="svg__text" d="M15.78 22L14.31 22L14.31 13.47L15.78 13.47L15.78 22ZM22.07 22L20.59 22L20.59 13.47L26.01 13.47L26.01 14.66L22.07 14.66L22.07 17.20L25.51 17.20L25.51 18.38L22.07 18.38L22.07 22ZM37.71 22L36.24 22L36.24 13.47L37.71 13.47L37.71 22ZM42.09 19.42L42.09 19.42L43.57 19.42Q43.57 20.15 44.05 20.55Q44.53 20.95 45.43 20.95L45.43 20.95Q46.20 20.95 46.59 20.63Q46.98 20.32 46.98 19.80L46.98 19.80Q46.98 19.24 46.59 18.94Q46.19 18.63 45.16 18.32Q44.13 18.01 43.52 17.63L43.52 17.63Q42.35 16.90 42.35 15.72L42.35 15.72Q42.35 14.69 43.19 14.02Q44.04 13.35 45.38 13.35L45.38 13.35Q46.27 13.35 46.97 13.68Q47.66 14.01 48.06 14.61Q48.46 15.22 48.46 15.96L48.46 15.96L46.98 15.96Q46.98 15.29 46.56 14.91Q46.14 14.54 45.37 14.54L45.37 14.54Q44.64 14.54 44.24 14.85Q43.84 15.16 43.84 15.71L43.84 15.71Q43.84 16.18 44.27 16.50Q44.70 16.81 45.70 17.10Q46.70 17.40 47.30 17.78Q47.90 18.16 48.18 18.65Q48.47 19.13 48.47 19.79L48.47 19.79Q48.47 20.86 47.65 21.49Q46.83 22.12 45.43 22.12L45.43 22.12Q44.50 22.12 43.73 21.77Q42.95 21.43 42.52 20.83Q42.09 20.22 42.09 19.42ZM55.87 22L52.75 22L52.75 13.47L55.68 13.47Q57.13 13.47 57.88 14.05Q58.64 14.63 58.64 15.78L58.64 15.78Q58.64 16.36 58.32 16.83Q58.00 17.30 57.39 17.56L57.39 17.56Q58.09 17.75 58.46 18.26Q58.84 18.78 58.84 19.51L58.84 19.51Q58.84 20.71 58.07 21.36Q57.30 22 55.87 22L55.87 22ZM54.24 18.15L54.24 20.82L55.88 20.82Q56.58 20.82 56.97 20.47Q57.37 20.13 57.37 19.51L57.37 19.51Q57.37 18.18 56.01 18.15L56.01 18.15L54.24 18.15ZM54.24 14.66L54.24 17.06L55.69 17.06Q56.38 17.06 56.77 16.75Q57.16 16.43 57.16 15.86L57.16 15.86Q57.16 15.23 56.80 14.95Q56.44 14.66 55.68 14.66L55.68 14.66L54.24 14.66ZM68.89 22L63.31 22L63.31 13.47L68.85 13.47L68.85 14.66L64.80 14.66L64.80 17.02L68.30 17.02L68.30 18.19L64.80 18.19L64.80 20.82L68.89 20.82L68.89 22ZM72.65 19.42L72.65 19.42L74.14 19.42Q74.14 20.15 74.62 20.55Q75.10 20.95 75.99 20.95L75.99 20.95Q76.77 20.95 77.16 20.63Q77.55 20.32 77.55 19.80L77.55 19.80Q77.55 19.24 77.15 18.94Q76.75 18.63 75.72 18.32Q74.69 18.01 74.08 17.63L74.08 17.63Q72.92 16.90 72.92 15.72L72.92 15.72Q72.92 14.69 73.76 14.02Q74.60 13.35 75.94 13.35L75.94 13.35Q76.83 13.35 77.53 13.68Q78.22 14.01 78.62 14.61Q79.02 15.22 79.02 15.96L79.02 15.96L77.55 15.96Q77.55 15.29 77.13 14.91Q76.71 14.54 75.93 14.54L75.93 14.54Q75.20 14.54 74.80 14.85Q74.40 15.16 74.40 15.71L74.40 15.71Q74.40 16.18 74.83 16.50Q75.27 16.81 76.26 17.10Q77.26 17.40 77.86 17.78Q78.47 18.16 78.75 18.65Q79.03 19.13 79.03 19.79L79.03 19.79Q79.03 20.86 78.21 21.49Q77.39 22.12 75.99 22.12L75.99 22.12Q75.07 22.12 74.29 21.77Q73.51 21.43 73.08 20.83Q72.65 20.22 72.65 19.42ZM85.00 14.66L82.36 14.66L82.36 13.47L89.13 13.47L89.13 14.66L86.47 14.66L86.47 22L85.00 22L85.00 14.66ZM98.24 22L92.89 22L92.89 13.47L94.37 13.47L94.37 20.82L98.24 20.82L98.24 22ZM103.14 22L101.60 22L104.83 13.47L106.16 13.47L109.39 22L107.84 22L107.14 20.01L103.84 20.01L103.14 22ZM105.49 15.28L104.25 18.82L106.72 18.82L105.49 15.28ZM114.82 22L113.34 22L113.34 13.47L114.82 13.47L118.64 19.54L118.64 13.47L120.11 13.47L120.11 22L118.63 22L114.82 15.95L114.82 22ZM124.60 18.13L124.60 18.13L124.60 17.46Q124.60 15.53 125.53 14.44Q126.45 13.35 128.11 13.35L128.11 13.35Q129.54 13.35 130.37 14.05Q131.21 14.76 131.38 16.08L131.38 16.08L129.93 16.08Q129.68 14.54 128.14 14.54L128.14 14.54Q127.14 14.54 126.63 15.26Q126.11 15.98 126.09 17.37L126.09 17.37L126.09 18.02Q126.09 19.40 126.67 20.17Q127.26 20.93 128.29 20.93L128.29 20.93Q129.43 20.93 129.91 20.42L129.91 20.42L129.91 18.75L128.15 18.75L128.15 17.62L131.39 17.62L131.39 20.89Q130.92 21.50 130.10 21.81Q129.28 22.12 128.24 22.12L128.24 22.12Q127.17 22.12 126.34 21.63Q125.52 21.14 125.07 20.24Q124.62 19.33 124.60 18.13ZM135.87 19.16L135.87 19.16L135.87 13.47L137.35 13.47L137.35 19.18Q137.35 20.03 137.78 20.48Q138.21 20.93 139.06 20.93L139.06 20.93Q140.77 20.93 140.77 19.13L140.77 19.13L140.77 13.47L142.24 13.47L142.24 19.17Q142.24 20.53 141.37 21.32Q140.50 22.12 139.06 22.12L139.06 22.12Q137.59 22.12 136.73 21.33Q135.87 20.55 135.87 19.16ZM147.59 22L146.05 22L149.28 13.47L150.61 13.47L153.83 22L152.29 22L151.59 20.01L148.29 20.01L147.59 22ZM149.94 15.28L148.70 18.82L151.17 18.82L149.94 15.28ZM157.54 18.13L157.54 18.13L157.54 17.46Q157.54 15.53 158.47 14.44Q159.39 13.35 161.05 13.35L161.05 13.35Q162.48 13.35 163.31 14.05Q164.15 14.76 164.32 16.08L164.32 16.08L162.87 16.08Q162.62 14.54 161.08 14.54L161.08 14.54Q160.09 14.54 159.57 15.26Q159.05 15.98 159.03 17.37L159.03 17.37L159.03 18.02Q159.03 19.40 159.61 20.17Q160.20 20.93 161.23 20.93L161.23 20.93Q162.37 20.93 162.85 20.42L162.85 20.42L162.85 18.75L161.09 18.75L161.09 17.62L164.33 17.62L164.33 20.89Q163.87 21.50 163.05 21.81Q162.22 22.12 161.18 22.12L161.18 22.12Q160.11 22.12 159.28 21.63Q158.46 21.14 158.01 20.24Q157.56 19.33 157.54 18.13ZM174.52 22L168.95 22L168.95 13.47L174.48 13.47L174.48 14.66L170.43 14.66L170.43 17.02L173.93 17.02L173.93 18.19L170.43 18.19L170.43 20.82L174.52 20.82L174.52 22Z" fill="#FFFFFF"/><path class="svg__text" d="M202.78 22L200.40 22L200.40 13.60L204.24 13.60Q205.38 13.60 206.22 13.98Q207.06 14.35 207.52 15.06Q207.97 15.76 207.97 16.71L207.97 16.71Q207.97 17.62 207.55 18.30Q207.12 18.98 206.33 19.36L206.33 19.36L208.14 22L205.60 22L204.07 19.77L202.78 19.77L202.78 22ZM202.78 15.47L202.78 17.93L204.10 17.93Q204.83 17.93 205.20 17.61Q205.57 17.29 205.57 16.71L205.57 16.71Q205.57 16.12 205.20 15.79Q204.83 15.47 204.10 15.47L204.10 15.47L202.78 15.47ZM219.51 22L212.76 22L212.76 13.60L219.35 13.60L219.35 15.44L215.12 15.44L215.12 16.85L218.85 16.85L218.85 18.63L215.12 18.63L215.12 20.17L219.51 20.17L219.51 22ZM226.10 15.48L223.52 15.48L223.52 13.60L231.04 13.60L231.04 15.48L228.48 15.48L228.48 22L226.10 22L226.10 15.48ZM235.34 18.26L235.34 18.26L235.34 13.60L237.72 13.60L237.72 18.19Q237.72 20.20 239.32 20.20L239.32 20.20Q240.90 20.20 240.90 18.19L240.90 18.19L240.90 13.60L243.24 13.60L243.24 18.26Q243.24 20.13 242.20 21.15Q241.16 22.17 239.29 22.17L239.29 22.17Q237.42 22.17 236.38 21.15Q235.34 20.13 235.34 18.26ZM250.71 22L248.33 22L248.33 13.60L252.17 13.60Q253.31 13.60 254.15 13.98Q254.99 14.35 255.45 15.06Q255.90 15.76 255.90 16.71L255.90 16.71Q255.90 17.62 255.48 18.30Q255.05 18.98 254.26 19.36L254.26 19.36L256.07 22L253.52 22L252.00 19.77L250.71 19.77L250.71 22ZM250.71 15.47L250.71 17.93L252.02 17.93Q252.76 17.93 253.13 17.61Q253.50 17.29 253.50 16.71L253.50 16.71Q253.50 16.12 253.13 15.79Q252.76 15.47 252.02 15.47L252.02 15.47L250.71 15.47ZM263.02 22L260.69 22L260.69 13.60L262.65 13.60L266.36 18.07L266.36 13.60L268.68 13.60L268.68 22L266.73 22L263.02 17.52L263.02 22ZM283.20 22L280.82 22L280.82 13.60L284.66 13.60Q285.80 13.60 286.64 13.98Q287.48 14.35 287.94 15.06Q288.39 15.76 288.39 16.71L288.39 16.71Q288.39 17.66 287.94 18.35Q287.48 19.05 286.64 19.42Q285.80 19.80 284.66 19.80L284.66 19.80L283.20 19.80L283.20 22ZM283.20 15.47L283.20 17.93L284.52 17.93Q285.25 17.93 285.62 17.61Q285.99 17.29 285.99 16.71L285.99 16.71Q285.99 16.12 285.62 15.80Q285.25 15.47 284.52 15.47L284.52 15.47L283.20 15.47ZM295.27 18.95L292.07 13.60L294.58 13.60L296.57 16.94L298.56 13.60L300.86 13.60L297.65 18.99L297.65 22L295.27 22L295.27 18.95ZM306.74 15.48L304.16 15.48L304.16 13.60L311.68 13.60L311.68 15.48L309.11 15.48L309.11 22L306.74 22L306.74 15.48ZM318.43 22L316.05 22L316.05 13.60L318.43 13.60L318.43 16.76L321.67 16.76L321.67 13.60L324.04 13.60L324.04 22L321.67 22L321.67 18.72L318.43 18.72L318.43 22ZM328.78 17.80L328.78 17.80Q328.78 16.55 329.38 15.55Q329.98 14.56 331.05 14.00Q332.11 13.43 333.44 13.43L333.44 13.43Q334.77 13.43 335.83 14.00Q336.90 14.56 337.50 15.55Q338.11 16.55 338.11 17.80L338.11 17.80Q338.11 19.05 337.50 20.04Q336.90 21.04 335.84 21.60Q334.78 22.17 333.44 22.17L333.44 22.17Q332.11 22.17 331.05 21.60Q329.98 21.04 329.38 20.04Q328.78 19.05 328.78 17.80ZM331.17 17.80L331.17 17.80Q331.17 18.51 331.48 19.05Q331.78 19.60 332.29 19.90Q332.81 20.20 333.44 20.20L333.44 20.20Q334.08 20.20 334.60 19.90Q335.11 19.60 335.41 19.05Q335.71 18.51 335.71 17.80L335.71 17.80Q335.71 17.09 335.41 16.54Q335.11 16 334.60 15.70Q334.08 15.40 333.44 15.40L333.44 15.40Q332.80 15.40 332.29 15.70Q331.78 16 331.48 16.54Q331.17 17.09 331.17 17.80ZM345.17 22L342.84 22L342.84 13.60L344.80 13.60L348.51 18.07L348.51 13.60L350.83 13.60L350.83 22L348.88 22L345.17 17.52L345.17 22Z" fill="#FFFFFF" x="199.21"/></svg>